<svg width="35" height="36" viewBox="0 0 35 36" fill="none" xmlns="http://www.w3.org/2000/svg">
<circle cx="17.1429" cy="17.1429" r="17.1429" transform="matrix(-1 0 0 1 35 0.999695)" fill="white"/>
<path fill-rule="evenodd" clip-rule="evenodd" d="M20.0909 14.2649C20.4968 13.8903 21.1294 13.9156 21.504 14.3214L24.7348 17.8214C25.0884 18.2044 25.0884 18.7949 24.7348 19.1779L21.504 22.678C21.1294 23.0838 20.4968 23.1091 20.091 22.7345C19.6851 22.3599 19.6598 21.7272 20.0344 21.3214L21.716 19.4997L12 19.4997C11.4477 19.4997 11 19.0519 11 18.4997C11 17.9474 11.4477 17.4997 12 17.4997L21.716 17.4997L20.0344 15.678C19.6598 15.2722 19.6851 14.6395 20.0909 14.2649Z" fill="#292D32"/>
</svg>
