<svg width="24" height="25" viewBox="0 0 24 25" fill="none" xmlns="http://www.w3.org/2000/svg">
<path fill-rule="evenodd" clip-rule="evenodd" d="M4 11.5732L4 13.5732L16 13.5732L16 15.5732L18 15.5732L18 13.5732L20 13.5732L20 11.5732L18 11.5732L18 9.57324L16 9.57324L16 11.5732L4 11.5732ZM14 7.57324L16 7.57324L16 9.57324L14 9.57324L14 7.57324ZM14 7.57324L12 7.57324L12 5.57324L14 5.57324L14 7.57324ZM14 17.5732L16 17.5732L16 15.5732L14 15.5732L14 17.5732ZM14 17.5732L12 17.5732L12 19.5732L14 19.5732L14 17.5732Z" fill="black"/>
</svg>
