<svg width="24" height="24" viewBox="0 0 24 24" fill="none" xmlns="http://www.w3.org/2000/svg">
<rect width="24" height="24" rx="12" fill="#01F7FF"/>
<path fill-rule="evenodd" clip-rule="evenodd" d="M5.33325 8.66666C5.33325 7.56209 6.22868 6.66666 7.33325 6.66666H16.6666C17.7712 6.66666 18.6666 7.56209 18.6666 8.66666V15.3333C18.6666 16.4379 17.7712 17.3333 16.6666 17.3333H7.33325C6.22868 17.3333 5.33325 16.4379 5.33325 15.3333V8.66666ZM7.33325 7.99999H16.6666C17.0348 7.99999 17.3333 8.29847 17.3333 8.66666V9.33332H6.66659V8.66666C6.66659 8.29847 6.96506 7.99999 7.33325 7.99999ZM6.66659 10.6667V15.3333C6.66659 15.7015 6.96506 16 7.33325 16H16.6666C17.0348 16 17.3333 15.7015 17.3333 15.3333V10.6667H6.66659Z" fill="#1A1D1F"/>
<path fill-rule="evenodd" clip-rule="evenodd" d="M8 14C8 13.6318 8.29848 13.3333 8.66667 13.3333H12.6667C13.0349 13.3333 13.3333 13.6318 13.3333 14C13.3333 14.3682 13.0349 14.6667 12.6667 14.6667H8.66667C8.29848 14.6667 8 14.3682 8 14Z" fill="#1A1D1F"/>
</svg>
