<svg width="30" height="30" viewBox="0 0 30 30" fill="none" xmlns="http://www.w3.org/2000/svg">
<rect x="1" y="1" width="28" height="28" rx="14" stroke="#353945" stroke-width="2"/>
<path fill-rule="evenodd" clip-rule="evenodd" d="M10.1883 10.1883C10.4393 9.93724 10.8464 9.93724 11.0974 10.1883L14.5 13.5909L17.9026 10.1883C18.1536 9.93724 18.5607 9.93724 18.8117 10.1883C19.0628 10.4393 19.0628 10.8464 18.8117 11.0974L15.4091 14.5L18.8117 17.9026C19.0628 18.1536 19.0628 18.5607 18.8117 18.8117C18.5607 19.0628 18.1536 19.0628 17.9026 18.8117L14.5 15.4091L11.0974 18.8117C10.8464 19.0628 10.4393 19.0628 10.1883 18.8117C9.93724 18.5607 9.93724 18.1536 10.1883 17.9026L13.5909 14.5L10.1883 11.0974C9.93724 10.8464 9.93724 10.4393 10.1883 10.1883Z" fill="#FCFCFD"/>
</svg>
