<svg width="22" height="12" viewBox="0 0 22 12" fill="none" xmlns="http://www.w3.org/2000/svg">
<path fill-rule="evenodd" clip-rule="evenodd" d="M14 -0.000976562H16V1.99902H14V-0.000976562ZM12 3.99902V1.99902H14V3.99902H12ZM10 5.99902V3.99902H12V5.99902H10ZM8 7.99902V5.99902H10V7.99902H8ZM6 9.99902V7.99902H8V9.99902H6ZM4 9.99902H6V11.999H4V9.99902ZM2 7.99902H4V9.99902H2V7.99902ZM2 7.99902H0V5.99902H2V7.99902ZM10 9.99902H12V11.999H10V9.99902ZM14 7.99902V9.99902H12V7.99902H14ZM16 5.99902V7.99902H14V5.99902H16ZM18 3.99902V5.99902H16V3.99902H18ZM20 1.99902H18V3.99902H20V1.99902ZM20 1.99902H22V-0.000976562H20V1.99902Z" fill="#00FFFF"/>
</svg>
