<svg className="fill-purple-500" width="53" height="53" viewBox="0 0 53 53" xmlns="http://www.w3.org/2000/svg">
<path d="M47.2939 19.1221C47.6052 19.7405 47.1252 20.4279 46.4329 20.4279H5.41675C4.86446 20.4279 4.41675 19.9802 4.41675 19.4279V14.1783C4.41675 8.78998 8.78925 4.41748 14.1776 4.41748H19.3009C22.9005 4.41748 24.0267 5.5879 25.4622 7.50915L28.5538 11.6166C29.2384 12.5221 29.3267 12.6325 30.6076 12.6325H36.7688C41.3671 12.6325 45.3553 15.2701 47.2939 19.1221Z" fill="#DDDDDD"/>
<path d="M48.5426 24.7364C48.5408 24.1854 48.0936 23.7398 47.5426 23.7398L5.41673 23.7405C4.86445 23.7405 4.41675 24.1882 4.41675 24.7405V36.7697C4.41675 43.2843 9.71675 48.5843 16.2313 48.5843H36.7688C43.2834 48.5843 48.5834 43.2843 48.5834 36.7697L48.5426 24.7364ZM32.0209 36.9905H28.2888V40.8551C28.2888 41.7605 27.538 42.5114 26.6326 42.5114C25.7051 42.5114 24.9763 41.7605 24.9763 40.8551V36.9905H20.9792C20.0738 36.9905 19.323 36.2397 19.323 35.3343C19.323 34.4289 20.0738 33.678 20.9792 33.678H24.9763V29.8134C24.9763 28.908 25.7051 28.1572 26.6326 28.1572C27.538 28.1572 28.2888 28.908 28.2888 29.8134V33.678H32.0209C32.9263 33.678 33.6772 34.4289 33.6772 35.3343C33.6772 36.2397 32.9263 36.9905 32.0209 36.9905Z" fill="#DDDDDD"/>
</svg>
