<svg width="20" height="20" viewBox="0 0 20 20" fill="none" xmlns="http://www.w3.org/2000/svg">
<path fill-rule="evenodd" clip-rule="evenodd" d="M3 20C1.34315 20 0 18.6569 0 17V9.33613C0 8.48567 0.360964 7.67518 0.993106 7.10625L7.9931 0.806251C9.13402 -0.220572 10.866 -0.220574 12.0069 0.80625L19.0069 7.10625C19.639 7.67518 20 8.48567 20 9.33613V17C20 18.6569 18.6569 20 17 20H3ZM18 9.33613V17C18 17.5523 17.5523 18 17 18H14V13C14 11.3432 12.6569 10 11 10H9C7.34315 10 6 11.3432 6 13V18H3C2.44772 18 2 17.5523 2 17V9.33613C2 9.05265 2.12032 8.78248 2.33104 8.59284L9.33103 2.29284C9.71134 1.95056 10.2887 1.95056 10.669 2.29284L17.669 8.59284C17.8797 8.78248 18 9.05265 18 9.33613ZM8 18V13C8 12.4478 8.44772 12 9 12H11C11.5523 12 12 12.4478 12 13V18H8Z" fill="#FEFEFE"/>
</svg>
