<svg width="49" height="52" viewBox="0 0 49 52" fill="none" xmlns="http://www.w3.org/2000/svg">
<path fill-rule="evenodd" clip-rule="evenodd" d="M8.53145 9.22214C10.1121 10.5063 10.705 10.4084 13.6732 10.2103L41.6552 8.53011C42.2486 8.53011 41.7551 7.93805 41.5572 7.83968L36.91 4.4801C36.0195 3.78877 34.8332 2.99706 32.5595 3.19511L5.4645 5.17133C4.47634 5.2693 4.27899 5.76338 4.67249 6.15939L8.53145 9.22214ZM10.2114 15.7433V45.1853C10.2114 46.7676 11.0021 47.3595 12.7818 47.2617L43.534 45.4822C45.3146 45.3843 45.5129 44.296 45.5129 43.0106V13.7662C45.5129 12.4829 45.0192 11.7909 43.9293 11.8897L11.793 13.7662C10.6069 13.8659 10.2114 14.4592 10.2114 15.7433ZM40.5699 17.3227C40.7671 18.2127 40.5699 19.102 39.6781 19.2021L38.1965 19.4973V41.2332C36.91 41.9247 35.7237 42.32 34.7352 42.32C33.1524 42.32 32.756 41.8256 31.5705 40.3444L21.8785 25.1292V39.8504L24.9454 40.5424C24.9454 40.5424 24.9454 42.32 22.471 42.32L15.6497 42.7157C15.4516 42.32 15.6497 41.3328 16.3416 41.1351L18.1217 40.6417V21.1774L15.6502 20.9794C15.452 20.0893 15.9456 18.8059 17.331 18.7063L24.6487 18.213L34.7352 33.6264V19.9913L32.1635 19.6962C31.9661 18.608 32.756 17.8179 33.745 17.72L40.5699 17.3227ZM3.18955 2.50388L31.3727 0.428386C34.8336 0.131558 35.7241 0.33041 37.8994 1.91052L46.8958 8.23368C48.3802 9.32102 48.875 9.61704 48.875 10.8024V45.4822C48.875 47.6557 48.0832 48.9411 45.3151 49.1377L12.586 51.1141C10.508 51.2132 9.51901 50.9171 8.43077 49.533L1.80569 40.9373C0.61868 39.355 0.125 38.1713 0.125 36.7864V5.96064C0.125 4.18327 0.917006 2.70063 3.18955 2.50388Z" fill="#DDDDDD"/>
</svg>
