<svg width="20" height="20" viewBox="0 0 20 20" fill="none" xmlns="http://www.w3.org/2000/svg">
<path fill-rule="evenodd" clip-rule="evenodd" d="M7.4889 3.05441C7.37598 2.52744 6.62402 2.52743 6.5111 3.05442L5.31658 8.62885C5.02017 10.0121 3.79778 11.0003 2.38317 11.0003H1C0.447715 11.0003 0 10.5526 0 10.0003C0 9.44798 0.447715 9.00027 1 9.00027H2.38317C2.85471 9.00027 3.26217 8.67087 3.36097 8.2098L4.55549 2.63536C5.12011 0.000466108 8.87988 0.00044179 9.44451 2.63535L12.5111 16.9461C12.624 17.4731 13.376 17.4731 13.4889 16.9461L14.6834 11.3717C14.9798 9.98847 16.2022 9.00027 17.6168 9.00027H19C19.5523 9.00027 20 9.44798 20 10.0003C20 10.5526 19.5523 11.0003 19 11.0003H17.6168C17.1453 11.0003 16.7378 11.3297 16.639 11.7907L15.4445 17.3652C14.8799 20.0001 11.1201 20.0001 10.5555 17.3652L7.4889 3.05441Z" fill="#1A1D1F"/>
</svg>