<svg width="36" height="36" viewBox="0 0 36 36" fill="none" xmlns="http://www.w3.org/2000/svg">
<path d="M35.0306 2.41798L33.2113 0.598688C33.1426 0.530036 33.0568 0.5 32.9667 0.5C32.8766 0.5 32.7908 0.534326 32.7221 0.598688L29.4568 3.86398C28.0373 2.90221 26.3615 2.38944 24.6468 2.39224C22.4499 2.39224 20.2531 3.22894 18.5754 4.90664L14.203 9.27896C14.1392 9.34348 14.1033 9.4306 14.1033 9.52139C14.1033 9.61218 14.1392 9.69931 14.203 9.76382L25.8611 21.4219C25.9298 21.4906 26.0156 21.5206 26.1057 21.5206C26.1915 21.5206 26.2816 21.4863 26.3503 21.4219L30.7226 17.0496C33.679 14.0889 34.0265 9.51067 31.7653 6.17243L35.0306 2.90713C35.1636 2.76983 35.1636 2.551 35.0306 2.41798ZM28.6544 14.9857L26.1057 17.5344L18.0905 9.51925L20.6392 6.97052C21.7076 5.90211 23.1322 5.30998 24.6468 5.30998C26.1615 5.30998 27.5817 5.89782 28.6544 6.97052C29.7228 8.03892 30.315 9.46347 30.315 10.9781C30.315 12.4928 29.7228 13.913 28.6544 14.9857ZM20.4933 19.4911C20.4288 19.4272 20.3417 19.3913 20.2509 19.3913C20.1601 19.3913 20.073 19.4272 20.0085 19.4911L17.1508 22.3487L13.2762 18.4741L16.1382 15.6122C16.2712 15.4792 16.2712 15.2603 16.1382 15.1273L14.5763 13.5655C14.5118 13.5016 14.4247 13.4657 14.3339 13.4657C14.2431 13.4657 14.156 13.5016 14.0915 13.5655L11.2295 16.4274L9.38448 14.5824C9.35245 14.5503 9.31428 14.5251 9.27225 14.5081C9.23023 14.4911 9.18521 14.4828 9.13991 14.4837C9.05409 14.4837 8.96398 14.518 8.89533 14.5824L4.5273 18.9547C1.57095 21.9153 1.22339 26.4936 3.48464 29.8319L0.219347 33.0972C0.155465 33.1617 0.119629 33.2488 0.119629 33.3396C0.119629 33.4304 0.155465 33.5175 0.219347 33.582L2.03864 35.4013C2.1073 35.47 2.19311 35.5 2.28322 35.5C2.37333 35.5 2.45914 35.4657 2.52779 35.4013L5.79309 32.136C7.23908 33.1186 8.92108 33.6078 10.6031 33.6078C12.8 33.6078 14.9968 32.7711 16.6745 31.0934L21.0469 26.721C21.1799 26.588 21.1799 26.3692 21.0469 26.2362L19.2018 24.3911L22.0638 21.5292C22.1968 21.3962 22.1968 21.1773 22.0638 21.0443L20.4933 19.4911ZM14.6064 29.0338C14.0812 29.5616 13.4567 29.9802 12.7688 30.2652C12.0809 30.5502 11.3434 30.696 10.5988 30.6943C9.08413 30.6943 7.66387 30.1065 6.59118 29.0338C6.06333 28.5086 5.6448 27.8841 5.35978 27.1962C5.07476 26.5083 4.9289 25.7708 4.93064 25.0262C4.93064 23.5115 5.51848 22.0913 6.59118 21.0186L9.13991 18.4698L17.1551 26.485L14.6064 29.0338Z" fill="#7FBA7A"/>
</svg>
