<svg width="36" height="25" viewBox="0 0 36 25" fill="none" xmlns="http://www.w3.org/2000/svg">
<path fill-rule="evenodd" clip-rule="evenodd" d="M15 0.573242H24V3.57324H15V0.573242ZM12 6.57324V3.57324H15V6.57324H12ZM6 9.57324V6.57324H12V9.57324H6ZM3 12.5732V9.57324H6V12.5732H3ZM3 21.5732H0V12.5732H3V21.5732ZM3 21.5732H13.5V24.5732H3V21.5732ZM27 6.57324H24V3.57324H27V6.57324ZM33 12.5732H30H27V9.57324V6.57324H30V9.57324H33V12.5732ZM33 21.5732V12.5732H36V21.5732H33ZM33 21.5732V24.5732H22.5V21.5732H33ZM16.5 8.07324H19.5V11.0732H22.5V14.0732H25.5V17.0732H19.5V24.5732H16.5V17.0732H10.5V14.0732H13.5V11.0732H16.5V8.07324Z" fill="#00FFFF"/>
</svg>
