<svg width="36" height="36" viewBox="0 0 36 36" fill="none" xmlns="http://www.w3.org/2000/svg">
<path fill-rule="evenodd" clip-rule="evenodd" d="M18 7C11.9249 7 7 11.9249 7 18C7 24.0751 11.9249 29 18 29C24.0751 29 29 24.0751 29 18C29 11.9249 24.0751 7 18 7ZM18 13C18.5523 13 19 13.4477 19 14V17H22C22.5523 17 23 17.4477 23 18C23 18.5523 22.5523 19 22 19H19V22C19 22.5523 18.5523 23 18 23C17.4477 23 17 22.5523 17 22V19H14C13.4477 19 13 18.5523 13 18C13 17.4477 13.4477 17 14 17H17V14C17 13.4477 17.4477 13 18 13Z" fill="#F1F5F9"/>
</svg>
