<svg width="26" height="12" viewBox="0 0 26 12" fill="none" xmlns="http://www.w3.org/2000/svg">
<path d="M17.98 6.79004C18.8936 6.79004 19.6343 7.53069 19.6343 8.44433C19.6343 9.35797 18.8936 10.0986 17.98 10.0986L1.65435 10.0986C0.740709 10.0986 5.90253e-05 9.35797 5.90618e-05 8.44433C5.90983e-05 7.53069 0.740711 6.79004 1.65435 6.79004L17.98 6.79004Z" fill="#151515"/>
<path d="M18.932 6.99088C19.5219 7.63692 19.5219 8.68436 18.932 9.33041C18.3422 9.97645 17.3859 9.97645 16.7961 9.3304L12.3947 4.50945C11.8049 3.86341 11.8049 2.81597 12.3947 2.16993C12.9845 1.52389 13.9408 1.52389 14.5306 2.16993L18.932 6.99088Z" fill="#151515"/>
</svg>
