<svg width="40" height="40" viewBox="0 0 40 40" fill="none" xmlns="http://www.w3.org/2000/svg">
<rect x="0.75" y="0.75" width="38.5" height="38.5" rx="11.25" stroke="#393E44" stroke-width="1.5"/>
<path d="M24.1665 11.6667V20.8334M28.3332 18.1667V14.3334C28.3332 13.3999 28.3332 12.9332 28.1516 12.5767C27.9918 12.2631 27.7368 12.0081 27.4232 11.8483C27.0667 11.6667 26.6 11.6667 25.6665 11.6667H16.7649C15.547 11.6667 14.938 11.6667 14.4462 11.8895C14.0127 12.086 13.6443 12.402 13.3842 12.8006C13.0892 13.2528 12.9966 13.8547 12.8114 15.0585L12.3755 17.8918C12.1313 19.4794 12.0091 20.2733 12.2447 20.891C12.4515 21.4331 12.8404 21.8864 13.3448 22.1732C13.9195 22.5 14.7227 22.5 16.329 22.5H16.9999C17.4666 22.5 17.6999 22.5 17.8782 22.5908C18.035 22.6707 18.1625 22.7982 18.2424 22.955C18.3332 23.1333 18.3332 23.3666 18.3332 23.8334V26.2785C18.3332 27.4134 19.2532 28.3334 20.3881 28.3334C20.6588 28.3334 20.9041 28.1739 21.014 27.9266L23.8146 21.6252C23.942 21.3386 24.0057 21.1953 24.1064 21.0902C24.1954 20.9973 24.3047 20.9263 24.4257 20.8827C24.5626 20.8334 24.7194 20.8334 25.033 20.8334H25.6665C26.6 20.8334 27.0667 20.8334 27.4232 20.6517C27.7368 20.4919 27.9918 20.2369 28.1516 19.9233C28.3332 19.5668 28.3332 19.1001 28.3332 18.1667Z" stroke="#7C878E" stroke-width="2" stroke-linecap="round" stroke-linejoin="round"/>
</svg>
