<svg width="20" height="20" viewBox="0 0 20 20" fill="none" xmlns="http://www.w3.org/2000/svg">
<path fill-rule="evenodd" clip-rule="evenodd" d="M14.8 2H13.2L13.2 3.6H11.6V5.2H10V6.8H8.4V8.4H6.8V10H5.2V11.6H3.6V13.2L2 13.2V16.4V18H3.6H6.8V16.4L8.4 16.4V14.8H10V13.2L11.6 13.2V11.6H13.2V10H14.8V8.4H16.4V6.8H18V5.2H16.4L16.4 3.6H14.8V2ZM14.8 8.4H13.2L13.2 10H11.6V11.6H10V13.2H8.4V14.8H6.8V13.2L5.2 13.2V11.6H6.8V10H8.4V8.4H10V6.8H11.6V5.2H13.2L13.2 6.8H14.8V8.4ZM5.2 13.2H3.6V16.4H6.8V14.8H5.2V13.2Z" fill="#00EBFF"/>
</svg>
