<svg width="17" height="16" viewBox="0 0 17 16" fill="none" xmlns="http://www.w3.org/2000/svg">
<path d="M11.4274 1.51321L10.1026 2.83799L13.6609 6.39627L14.9857 5.07149C15.67 4.38721 15.67 3.27867 14.9857 2.59438L13.9073 1.51321C13.223 0.828929 12.1144 0.828929 11.4302 1.51321H11.4274ZM9.48405 3.45658L3.10377 9.83959C2.81911 10.1243 2.61109 10.4773 2.49613 10.8633L1.52718 14.1561C1.45875 14.3887 1.52171 14.6378 1.69141 14.8075C1.86111 14.9772 2.11019 15.0402 2.34011 14.9745L5.63289 14.0055C6.01883 13.8906 6.37192 13.6825 6.65658 13.3979L13.0423 7.01486L9.48405 3.45658Z" fill="#01F7FF"/>
</svg>
