<svg width="24" height="24" viewBox="0 0 24 24" fill="none" xmlns="http://www.w3.org/2000/svg">
<path fill-rule="evenodd" clip-rule="evenodd" d="M12 13C8.13401 13 5 16.134 5 20V22C5 22.5523 4.55228 23 4 23C3.44772 23 3 22.5523 3 22V20C3 15.0294 7.02944 11 12 11C16.9706 11 21 15.0294 21 20V22C21 22.5523 20.5523 23 20 23C19.4477 23 19 22.5523 19 22V20C19 16.134 15.866 13 12 13Z" fill="#777E91"/>
<path fill-rule="evenodd" clip-rule="evenodd" d="M12 11C14.2091 11 16 9.20914 16 7C16 4.79086 14.2091 3 12 3C9.79086 3 8 4.79086 8 7C8 9.20914 9.79086 11 12 11ZM12 13C15.3137 13 18 10.3137 18 7C18 3.68629 15.3137 1 12 1C8.68629 1 6 3.68629 6 7C6 10.3137 8.68629 13 12 13Z" fill="#777E91"/>
</svg>
