<svg width="40" height="40" viewBox="0 0 40 40" fill="none" xmlns="http://www.w3.org/2000/svg">
<rect x="0.75" y="0.75" width="38.5" height="38.5" rx="11.25" stroke="#393E44" stroke-width="1.5"/>
<g clip-path="url(#clip0_201_34)">
<path d="M19.1665 11.6667L21.6665 14.1667M21.6665 14.1667L19.1665 16.6667M21.6665 14.1667H15.6665C14.2664 14.1667 13.5663 14.1667 13.0315 14.4392C12.5611 14.6789 12.1787 15.0613 11.939 15.5317C11.6665 16.0665 11.6665 16.7666 11.6665 18.1667V22.9167C11.6665 23.3037 11.6665 23.4972 11.6879 23.6597C11.8356 24.7815 12.7184 25.6643 13.8402 25.812C14.0026 25.8334 14.1962 25.8334 14.5832 25.8334M18.3332 25.8334H24.3332C25.7333 25.8334 26.4334 25.8334 26.9681 25.5609C27.4386 25.3212 27.821 24.9387 28.0607 24.4683C28.3332 23.9336 28.3332 23.2335 28.3332 21.8334V17.0834C28.3332 16.6963 28.3332 16.5028 28.3118 16.3404C28.1641 15.2185 27.2813 14.3358 26.1595 14.1881C25.997 14.1667 25.8035 14.1667 25.4165 14.1667M18.3332 25.8334L20.8332 28.3334M18.3332 25.8334L20.8332 23.3334" stroke="#7C878E" stroke-width="2" stroke-linecap="round" stroke-linejoin="round"/>
</g>
<defs>
<clipPath id="clip0_201_34">
<rect width="20" height="20" fill="white" transform="translate(10 10)"/>
</clipPath>
</defs>
</svg>
