<svg width="20" height="20" viewBox="0 0 20 20" fill="none" xmlns="http://www.w3.org/2000/svg">
<path fill-rule="evenodd" clip-rule="evenodd" d="M9.19095 12.5015C9.65086 12.4841 10.0378 12.8429 10.0551 13.3028C10.0943 14.3396 10.1492 15.0964 10.2033 15.6389C10.2565 16.1732 10.5791 16.4947 11.0287 16.5497C11.559 16.6145 12.3069 16.6676 13.3333 16.6676C14.3597 16.6676 15.1076 16.6145 15.6378 16.5497C16.0873 16.4948 16.41 16.1731 16.4632 15.6387C16.5636 14.6316 16.6666 12.8916 16.6666 10.0009C16.6666 7.11021 16.5636 5.37024 16.4632 4.36312C16.41 3.82867 16.0873 3.50703 15.6378 3.45209C15.1076 3.38728 14.3597 3.33423 13.3333 3.33423C12.3069 3.33423 11.5589 3.38727 11.0287 3.45208C10.5791 3.50705 10.2565 3.82854 10.2033 4.36287C10.1492 4.90544 10.0943 5.66218 10.0551 6.699C10.0378 7.15891 9.65086 7.51766 9.19095 7.5003C8.73104 7.48294 8.37228 7.09603 8.38964 6.63612C8.42982 5.57193 8.48678 4.78042 8.54483 4.19766C8.66688 2.97252 9.52105 1.95731 10.8265 1.79773C11.4342 1.72345 12.2506 1.66756 13.3333 1.66756C14.416 1.66756 15.2324 1.72345 15.8401 1.79774C17.1457 1.95734 17.9997 2.97302 18.1217 4.19792C18.2291 5.27646 18.3333 7.07462 18.3333 10.0009C18.3333 12.9272 18.2291 14.7253 18.1217 15.8039C17.9997 17.0288 17.1457 18.0444 15.8401 18.204C15.2324 18.2783 14.416 18.3342 13.3333 18.3342C12.2506 18.3342 11.4342 18.2783 10.8265 18.2041C9.52105 18.0445 8.66688 17.0293 8.54483 15.8041C8.48678 15.2214 8.42982 14.4299 8.38964 13.3657C8.37228 12.9057 8.73104 12.5188 9.19095 12.5015Z" fill="#7C878E"/>
<path fill-rule="evenodd" clip-rule="evenodd" d="M6.00588 12.3284C6.33132 12.6538 6.33132 13.1815 6.00588 13.5069C5.68044 13.8323 5.15281 13.8323 4.82737 13.5069L1.9107 10.5902C1.58527 10.2648 1.58527 9.73716 1.9107 9.41172L4.82737 6.49505C5.15281 6.16962 5.68044 6.16962 6.00588 6.49505C6.33132 6.82049 6.33132 7.34813 6.00588 7.67357L4.5118 9.16764H12.5C12.9602 9.16764 13.3333 9.54074 13.3333 10.001C13.3333 10.4612 12.9602 10.8343 12.5 10.8343L4.5118 10.8343L6.00588 12.3284Z" fill="#7C878E"/>
</svg>
